# xmcd
#
# Track frame offsets: 
#        150
#        13211
#        23269
#        39335
#        57813
#        76668
#        89815
#        107633
#        128048
#        140211
#        154990
#        170026
#        191309
#        207864
#        224621
#        238339
#
# Disc length: 3410 seconds
#
# Revision: 0
# Processed by: cddbd v1.5.2PL0 Copyright (c) Steve Scherf et al.
# Submitted via: ExactAudioCopyFreeDBPlugin 1.0
#
DISCID=de0d5010
DTITLE=GeeGee and S Oluna - Just Passing Through
DYEAR=1900
DGENRE=Blues
TTITLE0=900 Miles
TTITLE1=Subterranean Homesick Blues
TTITLE2=John Henry
TTITLE3=Wagon Wheel
TTITLE4=Staying Alive
TTITLE5=Jolene
TTITLE6=The Harder They Come
TTITLE7=Boulevard Of Broken Dreams
TTITLE8=Make Me A Pallet On The Floor
TTITLE9=Spike Driver's Blues
TTITLE10=Congo Sqare
TTITLE11=The Night They Drove Old Dixie Down
TTITLE12=Walking Boss
TTITLE13=Last Dance With Mary Jane
TTITLE14=There's An End
TTITLE15=Sing Out Loud
EXTD=
EXTT0=
EXTT1=
EXTT2=
EXTT3=
EXTT4=
EXTT5=
EXTT6=
EXTT7=
EXTT8=
EXTT9=
EXTT10=
EXTT11=
EXTT12=
EXTT13=
EXTT14=
EXTT15=
PLAYORDER=
